# xmcd CD database file
#
# Track frame offsets:
#	182
#	13320
#	25582
#	36550
#	46987
#	57832
#	69215
#	80342
#	90230
#	99720
#	110165
#	121207
#	136037
#	149307
#	159987
#	169297
#	178277
#	187137
#	196797
#	207685
#
# Disc length: 2916 seconds
#
# Revision: 0
# Processed by: cddbd v1.5.1PL0 Copyright (c) Steve Scherf et al.
# Submitted via: CDex 1.51
#
DISCID=1b0b6214
DTITLE=Faron Young - The Greatest Hits
DYEAR=1900
DGENRE=Country
TTITLE0=It's Four In The Morning
TTITLE1=Sweet Dreams
TTITLE2=I MIss You Already
TTITLE3=Hello Walls
TTITLE4=Riverboat
TTITLE5=Country Girl
TTITLE6=All Right
TTITLE7=Goin' Steady
TTITLE8=Backtrack
TTITLE9=Live Fast, Love Hard, Die Young
TTITLE10=Wine Me Up
TTITLE11=Your Time's Comin'
TTITLE12=This Little Girl Of Mine
TTITLE13=If You Ain't Lovin'
TTITLE14=The Comeback
TTITLE15=Alone With You
TTITLE16=That's The Way It's Gonna Be
TTITLE17=I've Got Five Dollars
TTITLE18=Three Days
TTITLE19=Yellow Bandana
EXTD=
EXTT0=
EXTT1=
EXTT2=
EXTT3=
EXTT4=
EXTT5=
EXTT6=
EXTT7=
EXTT8=
EXTT9=
EXTT10=
EXTT11=
EXTT12=
EXTT13=
EXTT14=
EXTT15=
EXTT16=
EXTT17=
EXTT18=
EXTT19=
PLAYORDER=
